<svg width="15.118" height="15.107" xmlns="http://www.w3.org/2000/svg">

 <g>
  <title>background</title>
  <rect fill="none" id="canvas_background" height="402" width="582" y="-1" x="-1"/>
 </g>
 <g>
  <title>Layer 1</title>
  <path fill="#ffffff" id="svg_1" d="m14.059,5.436l0,-2.191l-2.204,-1.102l-2.143,-2.143l-2.153,0.538l-2.153,-0.538l-2.143,2.143l-2.204,1.102l0,2.191l-1.059,2.118l1.059,2.118l0,2.191l2.204,1.102l2.143,2.143l2.153,-0.538l2.153,0.538l2.143,-2.143l2.204,-1.102l0,-2.191l1.059,-2.118l-1.059,-2.118zm-1,4l0,1.809l-1.724,0.862l-1.929,1.893l-1.847,-0.462l-1.847,0.462l-1.8,-1.8l-1.854,-0.956l0,-1.808l-0.94,-1.882l0.941,-1.882l0,-1.809l1.724,-0.862l1.93,-1.894l1.847,0.462l1.847,-0.462l1.8,1.8l1.854,0.956l0,1.809l0.939,1.882l-0.941,1.882z"/>
  <rect fill="#ffffff" id="svg_2" y="7.054" x="3.316" width="8.485" transform="matrix(0.7071,-0.7071,0.7071,0.7071,-3.1273,7.5575) " height="1"/>
  <path fill="#ffffff" id="svg_3" d="m5.559,7.054c0.827,0 1.5,-0.673 1.5,-1.5s-0.673,-1.5 -1.5,-1.5s-1.5,0.673 -1.5,1.5s0.673,1.5 1.5,1.5zm0,-2c0.276,0 0.5,0.224 0.5,0.5s-0.224,0.5 -0.5,0.5s-0.5,-0.224 -0.5,-0.5s0.224,-0.5 0.5,-0.5z"/>
  <path fill="#ffffff" id="svg_4" d="m9.559,8.054c-0.827,0 -1.5,0.673 -1.5,1.5s0.673,1.5 1.5,1.5s1.5,-0.673 1.5,-1.5s-0.673,-1.5 -1.5,-1.5zm0,2c-0.276,0 -0.5,-0.224 -0.5,-0.5s0.224,-0.5 0.5,-0.5s0.5,0.224 0.5,0.5s-0.224,0.5 -0.5,0.5z"/>
 </g>
</svg>